<?xml version="1.0" encoding="utf-8"?>
<!-- Generator: Adobe Illustrator 22.0.1, SVG Export Plug-In . SVG Version: 6.00 Build 0)  -->
<svg version="1.1" id="Layer_1" xmlns="http://www.w3.org/2000/svg" xmlns:xlink="http://www.w3.org/1999/xlink" x="0px" y="0px"
	 viewBox="0 0 1366 1366" style="enable-background:new 0 0 1366 1366;" xml:space="preserve">
<style type="text/css">
	.st0{fill:#87C0F5;}
	.st1{fill:#FFFFFF;}
</style>
<g>
	<path class="st0" d="M174.4,890.4c1.4-21.6,2.9-46.5,4.7-71.3c2.7-37.5,5.9-75,6-112.6c0-2.9-0.2-5.9-0.1-8.8
		c0.2-3.9-1.3-7.1-4.3-9.5c-2.5-2.1-5.1-4.1-7.8-5.9c-16.3-10.9-25.1-26.5-28.1-45.7c-3.5-22.4-1.2-44.2,6.9-65.3
		c3.8-10.1,9.7-18.9,17.5-26.3c1.8-1.7,3.7-3.3,5.8-4.7c9.9-6.6,20.1-6.9,30.1-0.4c9.3,5.9,15.9,14.3,20.7,24.1
		c11.6,23.9,15,48.9,9.4,75c-3.5,16.4-11.9,29.8-24.8,40.4c-3.6,3-7.2,6-10.7,9.1c-3.1,2.7-4.4,6.1-4.5,10.3
		c-0.1,32,2.1,63.9,4.7,95.8c2.5,31.8,6,63.5,6.4,95.5c0.3,19.3-0.8,38.5-3.1,57.5c-0.3,2-0.7,4-1.2,6c-1.6,5.5-4.7,7.9-10.3,8.1
		c-6.7,0.3-11.1-1.9-12.6-7.4c-1.5-5.3-2.3-10.9-2.7-16.5C175.5,923.3,175.1,908.5,174.4,890.4z"/>
	<path class="st0" d="M297.8,835.9c0.6-29.7,1.1-59.3,1.8-89.1c0.2-7.3-1.5-13.5-6.1-19.2c-7.6-9.6-10.1-21.1-10.9-33.1
		c-1.2-17.1-0.1-34.2,1.3-51.3c1.3-16.3,2.9-32.7,4.5-48.9c1.6-15.9,4.3-31.6,8.9-46.9c2.5-8.1,5.7-12.5,17.8-11.1
		c4.7,0.5,7.8,3.6,8.9,8.1c1.1,4.6,1.9,9.4,2,14.1c0.6,17.6,1,35.3,1.2,52.9c0.4,32.1,0.5,64.1,0.8,96.2c0.1,8.1-0.9,16.1-2.7,24
		c-0.9,3.9-1.3,7.9-1.1,11.9c0.9,31.7,1.7,63.4,2.8,95.2c1.1,31.2,1.2,62.4-1.8,93.5c-0.6,6.5-1.3,13.1-2.3,19.5
		c-1.5,10.1-9.5,10.5-15.9,8.5c-3.3-1.1-5.1-3.9-5.7-7.1c-0.9-5.4-1.7-10.9-2.1-16.3C296.6,903.2,296.3,869.6,297.8,835.9z"/>
	<path class="st0" d="M50.1,888.2c0.2-29.5,2.3-58.8,5.1-88.2c2.8-30,6.7-59.9,7.3-90.1c0.1-2.9,0.1-5.7,0.2-8.5
		c0.1-3.9-1.1-7.3-4.1-9.9c-2.5-2.3-5-4.5-7.5-6.7c-12.5-10.9-18.7-24.8-20.7-41c-1.9-15.1-0.9-30.3,1.2-45.3
		c2.3-15.9,4.7-31.9,7.4-47.8c0.7-4.3,2.4-8.5,3.8-12.7c0.3-0.9,1.4-1.5,2.1-2.1c0.5,0.9,1.4,1.9,1.4,2.9
		c-0.1,7.5-0.3,14.9-0.7,22.3c-0.7,15.1-1.6,30.3-2.4,45.4c-0.1,2.7,1,3.7,3.8,3.8c2.9,0.1,3.9-0.8,4.1-3.5
		c0.9-20.8,1.8-41.6,2.7-62.4c0.1-1.9,0.2-3.9,0.9-5.7c0.4-1.1,1.7-2.4,2.8-2.5c0.8-0.1,2.2,1.3,2.6,2.4c0.6,1.6,0.8,3.5,0.9,5.2
		c0.5,20.7,0.9,41.5,1.4,62.2c0.1,1.5-0.5,3.7,1.7,3.9c2.1,0.3,4.3-0.1,6.3-0.6c0.6-0.2,0.9-2.1,0.9-3.3c0.3-18.8,0.5-37.6,0.7-56.3
		c0.1-3.2,0.2-6.4,0.5-9.5c0.2-1.9,0.5-4.1,3.1-4.2c2.5-0.1,3.4,1.9,3.7,3.9c0.5,3.7,0.8,7.4,1,11.1c1.1,18.6,2.1,37.1,3.3,55.7
		c0.1,2.7,1.4,4,3.9,3.9c2.7-0.1,4.2-1.5,4-4.1c-0.7-14.3-1.5-28.5-2.3-42.7c-0.4-7.7-0.9-15.4-1.3-23.1c-0.1-1-0.1-2,0.1-2.9
		c0.1-0.6,0.7-1.4,1.2-1.5s1.4,0.4,1.7,0.9c0.9,1.6,1.8,3.3,2.2,5.1c2.2,10.9,4.7,21.8,6.3,32.8c1.9,13.3,3.4,26.7,4.5,40.1
		c0.9,11.3,0.9,22.7-1.3,33.9c-2.7,14.3-9.7,26.3-20.7,35.9c-2.6,2.3-5.1,4.6-7.7,6.9c-2.5,2.3-3.6,5.2-3.6,8.7
		c-0.1,24.9,1.8,49.7,3.7,74.6c3.4,44.3,7.2,88.8,5.9,133.3c-0.4,14.5-1.7,29-3.1,43.5c-0.9,8.7-11.5,13.2-19.1,8.7
		c-2.5-1.5-3.8-3.8-4.2-6.5c-0.9-6.4-1.7-12.8-2.1-19.3C51,919.2,50.6,903.7,50.1,888.2z"/>
</g>
<g>
	<path class="st1" d="M379.9,666h95.7v19.2h-72.8v59H470v18.9h-67.2v80.5h-22.9V666z"/>
	<path class="st1" d="M526.5,680.2c0.3,7.9-5.6,14.2-14.8,14.2c-8.2,0-14-6.3-14-14.2c0-8.2,6-14.5,14.5-14.5
		C520.9,665.7,526.5,672.1,526.5,680.2z M500.7,843.7V716h23.2v127.7H500.7z"/>
	<path class="st1" d="M562.3,750.6c0-13.2-0.3-23.9-1-34.5h20.6l1.3,21.1h0.6c6.3-12.2,21.1-23.9,42.1-23.9
		c17.6,0,45.1,10.6,45.1,54.3v76.2h-23.2v-73.5c0-20.6-7.6-37.7-29.5-37.7c-15.3,0-27.2,10.7-31.1,23.8c-1,2.9-1.6,6.9-1.6,10.7
		v76.7h-23.2L562.3,750.6L562.3,750.6L562.3,750.6z"/>
	<path class="st1" d="M721.5,784.1c0.6,31.4,20.6,44.3,43.7,44.3c16.6,0,26.7-2.9,35.4-6.6l4,16.6c-8.2,3.7-22.2,7.9-42.4,7.9
		c-39.3,0-62.8-25.8-62.8-64.3s22.6-68.8,59.9-68.8c41.7,0,52.7,36.7,52.7,60.2c0,4.7-0.6,8.5-0.9,10.7L721.5,784.1L721.5,784.1z
		 M789.6,767.5c0.3-14.8-6-37.7-32.1-37.7c-23.5,0-33.8,21.6-35.5,37.7H789.6z"/>
	<path class="st1" d="M841.6,668.3c14-2.1,30.5-3.7,48.7-3.7c33,0,56.5,7.6,71.9,22.2c15.8,14.5,25.1,35.1,25.1,63.8
		c0,28.9-9,52.7-25.5,69.1c-16.6,16.6-44,25.5-78.5,25.5c-16.3,0-30.1-0.9-41.7-2.1V668.3z M864.5,825.5c5.7,1,14.2,1.3,23.2,1.3
		c49,0,75.7-27.4,75.7-75.4c0.3-42-23.5-68.5-71.9-68.5c-11.9,0-20.8,1-26.9,2.4L864.5,825.5L864.5,825.5z"/>
	<path class="st1" d="M1042.2,680.2c0.3,7.9-5.6,14.2-14.8,14.2c-8.2,0-14-6.3-14-14.2c0-8.2,6-14.5,14.5-14.5
		C1036.7,665.7,1042.2,672.1,1042.2,680.2z M1016.4,843.7V716h23.2v127.7H1016.4z"/>
	<path class="st1" d="M1078.1,750.6c0-13.2-0.3-23.9-1-34.5h20.6l1.3,21.1h0.6c6.3-12.2,21.1-23.9,42.1-23.9
		c17.6,0,45.1,10.6,45.1,54.3v76.2h-23.2v-73.5c0-20.6-7.6-37.7-29.5-37.7c-15.3,0-27.2,10.7-31.1,23.8c-1,2.9-1.6,6.9-1.6,10.7
		v76.7h-23.2v-93.2L1078.1,750.6L1078.1,750.6z"/>
	<path class="st1" d="M1237.3,784.1c0.6,31.4,20.6,44.3,43.7,44.3c16.6,0,26.7-2.9,35.4-6.6l4,16.6c-8.2,3.7-22.2,7.9-42.4,7.9
		c-39.3,0-62.8-25.8-62.8-64.3s22.6-68.8,59.9-68.8c41.7,0,52.7,36.7,52.7,60.2c0,4.7-0.6,8.5-0.9,10.7L1237.3,784.1L1237.3,784.1z
		 M1305.4,767.5c0.3-14.8-6-37.7-32.1-37.7c-23.5,0-33.8,21.6-35.5,37.7H1305.4z"/>
</g>
</svg>
