<?xml version="1.0" encoding="UTF-8"?>
<svg viewBox="0 0 1024 768" xmlns="http://www.w3.org/2000/svg">
 <g stroke="#38acec" stroke-width="13">
  <g fill="#fff" fill-opacity=".75" fill-rule="evenodd">
   <path d="m782.27 221.26l0.8911-75.168s-1.3367-15.034 11.146-15.034c12.038 0 9.808 15.034 9.808 15.034l-0.4456 75.168s-1.3384 7.5172 8.9169 7.9594c10.254 0.4422 8.4695-8.4015 8.4695-8.4015l-0.4456-73.842s-0.89111-15.919 9.8098-15.919c10.699 0 8.4695 16.361 8.4695 16.361v75.61s3.3445 6.5218 10.701 6.1906c7.3565-0.3329 8.5814-6.3016 8.805-6.136l1.0031-75.223s0-15.919 9.3624-16.361c9.3626-0.44222 9.3626 16.361 9.3626 16.361l-0.4456 79.59s4.9922 64.3-25.489 68.624c-26.98 3.8277 10.645 228.68 0.58539 235.37-9.5162 6.3289-11.898 7.442-20.815 7.8842-8.9169 0.4422-17.64-2.7283-23.336-9.134-10.495-11.802 22.861-232.58 2.6875-235.43-26.286-3.7219-29.487-73.944-29.041-73.502z"/>
   <path d="m88.69 173.71c12.038-22.552 36.559-26.244 47.258-26.244 10.701 0 39.526 2.5148 47.705 28.013 8.2843 25.823 4.5467 143.89-25.935 148.21-26.98 3.8278 10.645 228.68 0.58539 235.37-9.5162 6.3289-11.898 7.4421-20.815 7.8843-8.9169 0.4422-16.757-1.0039-22.454-7.4096-10.495-11.802 21.978-231.72 1.805-234.57-26.286-3.7219-40.188-128.71-28.15-151.26z"/>
  </g>
  <g stroke-linecap="round">
   <path d="m137.34 175.56c11.079-2.3416 21.9 7.5211 27.989 25.51 6.0883 17.988 6.4088 41.045 0.82907 59.636s-16.111 29.555-27.24 28.36" fill="#fff"/>
   <g fill="none" stroke-dasharray="null" stroke-linejoin="null">
    <circle cx="496.29" cy="344.32" r="258.15"/>
    <circle cx="497.74" cy="346.49" r="217.29"/>
   </g>
  </g>
 </g>
</svg>
